<svg width="60" height="60" viewBox="0 0 60 60" fill="none" xmlns="http://www.w3.org/2000/svg">
<path d="M17.5963 15.3375C17.5963 15.3375 16.8326 14.9362 16.3363 12.6625C15.8401 10.3887 20.1938 6.18748 20.1938 6.18748C20.1938 6.18748 21.5313 5.53873 27.0688 5.63498C32.6063 5.73123 33.9263 6.62748 35.0726 8.00248C40.0688 14 49.4538 25.9375 51.6813 35.35C52.1888 36.7525 52.8888 35.9875 52.8888 38.2512C52.8888 39.8737 52.0013 40.3212 51.7638 40.5862C45.9963 47.0412 31.8638 49.18 25.5601 49.18C19.2563 49.18 19.2963 47.7287 17.5388 47.7287C15.7813 47.7287 13.8338 53.535 9.48883 54.375C6.25133 47.8812 6.38508 34.7412 9.48883 27.8C16.7938 27.8 17.9588 30.6062 20.9763 30.6062C23.5551 30.6062 23.1538 29.0025 27.2226 29.0025C31.2913 29.0025 36.9051 33.6425 36.9051 33.6425C33.7251 29.69 37.2701 20.0575 30.4026 13.6462C29.1126 12.4437 28.5113 16.3962 24.5001 16.3962C23.9088 16.7462 21.7813 17.025 21.7813 17.025" stroke="#FF0707" stroke-linecap="round" stroke-linejoin="round"/>
<path d="M38.6051 35.28C39.7226 36.555 42.0188 38.2837 44.1538 38.255M15.5913 36.9187C13.1276 39.8787 12.8026 43.0875 10.3201 44.425M19.3913 38.2562C23.0976 42.0187 29.8013 41.7687 33.7163 37.7587M33.8826 10.925C33.7113 11.6412 32.7951 12.7437 32.1201 12.93M23.4126 8.06C22.9113 8.66125 20.4751 11.7562 20.5326 12.2575C20.5901 12.7587 20.2326 15.265 20.9913 15.5375C21.7501 15.81 24.3288 15.35 24.3001 14.2625C24.2713 13.175 24.0563 12.615 24.1138 12.085C24.1713 11.555 25.8901 8.935 25.8901 8.935" stroke="#FF0707" stroke-linecap="round" stroke-linejoin="round"/>
<path d="M20.9337 7.60126C20.3037 8.36126 18.2262 11.2975 18.2549 12.5288C18.2837 13.76 18.4124 14.6638 18.6987 14.9363C18.9849 15.2088 20.5337 14.5675 20.5337 14.5675" stroke="#FF0707" stroke-linecap="round" stroke-linejoin="round"/>
<path d="M21.0875 15.565C21.0875 15.565 21.7075 16.24 21.7787 16.97C21.85 17.7 20.8337 18.4025 19.9037 18.66C18.9737 18.9175 17.6675 17.17 17.6675 16.5113C17.6675 15.8525 18.6987 14.9363 18.6987 14.9363M26.9725 12.0875C27.005 13.0138 27.2312 14.0175 26.4325 14.3088C25.6337 14.6 24.2512 14.5288 24.2512 14.5288" stroke="#FF0707" stroke-linecap="round" stroke-linejoin="round"/>
</svg>

